<svg width="20" height="21" viewBox="0 0 20 21" fill="none" xmlns="http://www.w3.org/2000/svg">
<path d="M13.5879 11.1396C13.5712 11.1337 13.554 11.1292 13.5365 11.1263L13.5321 11.1229L13.4921 11.0957C13.4585 11.0754 13.4235 11.0573 13.3875 11.0416C13.2901 11 13.1894 10.9666 13.0864 10.9417C12.3552 10.7756 11.6728 10.4411 11.0935 9.96493C9.79337 8.80494 8.96084 7.21069 8.75188 5.48089C8.7079 5.23196 8.67671 4.98094 8.65843 4.72882L8.64155 4.53824L8.63304 4.44276L8.62876 4.39496L8.62763 4.38305C8.62549 4.34868 8.61955 4.31465 8.60993 4.28158C8.58723 4.20188 8.54116 4.13082 8.47766 4.07757C8.41416 4.02432 8.33615 3.99134 8.25371 3.98288C8.17127 3.97442 8.08819 3.99087 8.0152 4.03011C7.94221 4.06935 7.88266 4.12957 7.84424 4.203C7.81471 4.26063 7.79759 4.32381 7.79397 4.38847L7.78977 4.43234C7.75018 4.43451 7.75445 4.43463 7.78977 4.43234L7.78939 4.4363L7.78028 4.53205L7.76208 4.72382C7.7169 5.23599 7.63126 5.74377 7.50596 6.24243C7.273 7.20854 6.85437 8.12012 6.27339 8.92641C5.75769 9.62836 5.07732 10.1928 4.29219 10.5699L3.89481 10.7263C3.70209 10.795 3.43579 10.8473 3.29194 10.9091L2.79309 11.0843L2.55051 11.1696C2.50951 11.1914 2.53109 11.2027 2.51843 11.2196L2.49161 11.3108L2.47868 11.3549C2.47671 11.3731 2.47586 11.3914 2.47613 11.4097C2.47524 11.4212 2.47687 11.4327 2.48089 11.4435L2.52888 11.6051C2.63701 11.6889 2.75056 11.7654 2.86878 11.8341C3.27907 11.8832 3.6817 11.9829 4.06747 12.131L4.24283 12.1992C4.29181 12.2174 4.33924 12.2397 4.38462 12.2657L4.68524 12.4209C5.15512 12.6978 5.58097 13.0434 5.94868 13.4462C6.8132 14.4608 7.39839 15.6832 7.64657 16.9929C7.72001 17.3553 7.77409 17.7214 7.80858 18.0896L7.83608 18.365L7.83951 18.3993C7.84141 18.4295 7.84624 18.4594 7.85393 18.4886C7.87338 18.5634 7.91581 18.6301 7.97523 18.6795C8.03466 18.7288 8.10807 18.7582 8.18511 18.7636C8.26215 18.7689 8.33894 18.75 8.40462 18.7093C8.4703 18.6687 8.52157 18.6085 8.55118 18.5372C8.56867 18.4948 8.579 18.4498 8.58173 18.404L8.58318 18.3869L8.59482 18.2498L8.64136 17.7054C8.72491 17.0233 8.87947 16.3517 9.10252 15.7016C9.41622 14.762 9.93914 13.906 10.6318 13.1979C11.1994 12.624 11.8968 12.1951 12.6651 11.9476C13.1834 11.7765 13.4846 11.7603 13.5371 11.7054C13.5685 11.6831 13.5099 11.5898 13.573 11.591C13.63 11.5798 13.6803 11.5467 13.7133 11.4989C13.7463 11.4511 13.7593 11.3923 13.7495 11.3351C13.742 11.2829 13.7175 11.2346 13.6797 11.1977C13.6536 11.1721 13.6223 11.1523 13.5879 11.1396Z" fill="white"/>
<path d="M17.4369 5.95778C17.407 5.90461 17.3579 5.86485 17.2997 5.84662C17.2274 5.83052 17.2762 5.83541 17.2583 5.82881L17.2437 5.80584C17.2324 5.79019 17.2194 5.77574 17.2052 5.76271C17.1725 5.73324 17.1347 5.71001 17.0937 5.69416C16.9707 5.66048 16.8501 5.61851 16.7328 5.56854C16.4461 5.43071 16.1969 5.22579 16.0063 4.97115C15.9433 4.88892 15.8855 4.80289 15.8332 4.71355L15.7526 4.56995L15.6545 4.35823C15.6046 4.22733 15.5635 4.0932 15.5316 3.95677C15.4948 3.80533 15.4509 3.69188 15.4196 3.49923C15.3856 3.32136 15.3514 3.14191 15.3168 2.9609C15.309 2.90014 15.2974 2.9051 15.2868 2.89392L15.2543 2.86538L15.189 2.80816L15.1256 2.75426L15.0915 2.73926L15.0287 2.71264L14.9996 2.70093L14.9923 2.69822C14.9877 2.69665 14.9647 2.6981 14.9709 2.69856L14.9562 2.70203C14.9476 2.70207 14.8972 2.71756 14.8474 2.73198C14.8024 2.76031 14.7594 2.79194 14.719 2.82662C14.693 2.84404 14.6693 2.86483 14.6487 2.88846L14.5694 3.10908C14.5355 3.51742 14.4481 3.91953 14.3094 4.3051C14.229 4.48828 14.2171 4.50934 14.1809 4.57839L14.0768 4.75596C13.9418 4.97089 13.7694 5.15992 13.5678 5.31413C13.5456 5.33284 13.522 5.34965 13.497 5.36437L13.3852 5.43822C13.239 5.5071 13.0858 5.56024 12.9283 5.59676C12.8513 5.61637 12.7757 5.64084 12.7018 5.67004L12.5039 5.74714C12.401 5.80554 12.3259 5.87745 12.3462 5.90846L12.308 6.01371L12.3037 6.05769C12.3018 6.09044 12.3035 6.1233 12.3087 6.15569L12.3427 6.24575L12.3564 6.28127L12.3643 6.30175L12.4172 6.33494C12.4925 6.38156 12.5817 6.43687 12.6889 6.50336C12.8531 6.53991 13.0124 6.59453 13.2117 6.65019C13.2998 6.67526 13.3828 6.71586 13.4566 6.77008L13.5543 6.83276C13.7058 6.94553 13.8428 7.07664 13.9621 7.22308C14.0308 7.30993 14.0938 7.40115 14.1507 7.49617C14.2384 7.63582 14.3108 7.78447 14.3667 7.93956C14.5405 8.38138 14.5866 9.23161 14.8262 9.32616C14.8407 9.35588 14.8634 9.38084 14.8916 9.39808C14.9198 9.41532 14.9524 9.42414 14.9854 9.42347C15.0761 9.42347 15.2363 9.46747 15.3566 8.89567C15.4633 8.38867 15.5023 8.12005 15.5924 7.82748C15.6567 7.6736 15.6821 7.62984 15.7075 7.5731L15.7986 7.41399C15.8946 7.25425 16.0113 7.10789 16.1456 6.97873C16.4773 6.70802 16.8575 6.5031 17.266 6.37498C17.2774 6.35598 17.2406 6.25845 17.2937 6.26318C17.3268 6.25838 17.3582 6.24544 17.385 6.22552C17.4119 6.2056 17.4334 6.17932 17.4475 6.14905C17.4617 6.11878 17.4682 6.08545 17.4663 6.05207C17.4645 6.01869 17.4543 5.98629 17.4369 5.95778Z" fill="white"/>
</svg>
