<svg width="70" height="71" viewBox="0 0 70 71" fill="none" xmlns="http://www.w3.org/2000/svg">
<path d="M57.8703 69.4062H12.1297C11.1925 69.4064 10.2656 69.212 9.40743 68.8353C8.5493 68.4587 7.77868 67.908 7.14436 67.2182C6.51003 66.5283 6.0258 65.7143 5.72232 64.8277C5.41883 63.941 5.3027 63.001 5.38126 62.0672L9.63048 11.5469H60.3695L64.6188 62.0672C64.6973 63.001 64.5812 63.941 64.2777 64.8277C63.9742 65.7143 63.49 66.5283 62.8557 67.2182C62.2213 67.908 61.4507 68.4587 60.5926 68.8353C59.7344 69.212 58.8075 69.4064 57.8703 69.4062Z" fill="#D9D9D9"/>
<path d="M57.8703 69.9531H12.1297C11.117 69.9533 10.1153 69.7432 9.18803 69.3363C8.26072 68.9294 7.42795 68.3345 6.7424 67.5891C6.05685 66.8438 5.53345 65.9643 5.2053 65.0063C4.87716 64.0483 4.75141 63.0326 4.83601 62.0234L9.08523 11.5031C9.09677 11.3662 9.15945 11.2386 9.26078 11.1458C9.36211 11.053 9.49468 11.0017 9.6321 11.0022H60.3712C60.5086 11.0017 60.6411 11.053 60.7425 11.1458C60.8438 11.2386 60.9065 11.3662 60.918 11.5031L65.1673 62.0234C65.2519 63.0328 65.126 64.0488 64.7977 65.0071C64.4693 65.9653 63.9457 66.845 63.2598 67.5903C62.5738 68.3357 61.7407 68.9306 60.813 69.3373C59.8853 69.744 58.8832 69.9537 57.8703 69.9531ZM10.133 12.0938L5.92593 62.1131C5.85373 62.9716 5.9605 63.8357 6.2395 64.6507C6.5185 65.4658 6.96366 66.2141 7.54679 66.8482C8.12992 67.4823 8.83833 67.9885 9.62719 68.3347C10.4161 68.6809 11.2682 68.8595 12.1297 68.8594H57.8703C58.7318 68.8595 59.5839 68.6809 60.3728 68.3347C61.1616 67.9885 61.8701 67.4823 62.4532 66.8482C63.0363 66.2141 63.4815 65.4658 63.7605 64.6507C64.0395 63.8357 64.1463 62.9716 64.0741 62.1131L59.8669 12.0938H10.133Z" fill="#1E1E1E"/>
<path d="M60.3696 11.5469H53.4899V6.23126L57.8157 9.57267L60.3696 11.5469Z" fill="#D9D9D9"/>
<path d="M60.3696 12.0938H53.4899C53.3448 12.0938 53.2057 12.0361 53.1032 11.9336C53.0006 11.831 52.943 11.6919 52.943 11.5469V6.23125C52.943 6.12903 52.9716 6.02885 53.0256 5.94206C53.0796 5.85528 53.1569 5.78537 53.2486 5.74027C53.3403 5.69518 53.4429 5.67669 53.5446 5.68692C53.6463 5.69714 53.7431 5.73567 53.824 5.79813L60.7032 11.1143C60.7934 11.1841 60.8596 11.2804 60.8924 11.3897C60.9252 11.4989 60.923 11.6157 60.8861 11.7237C60.8492 11.8317 60.7794 11.9254 60.6866 11.9918C60.5938 12.0581 60.4826 12.0938 60.3685 12.0938H60.3696ZM54.0367 11H58.7678L54.0367 7.34469V11Z" fill="#1E1E1E"/>
<path d="M16.5102 6.23126V11.5469H9.63049L12.1844 9.57267L16.5102 6.23126Z" fill="#D9D9D9"/>
<path d="M16.5102 12.0938H9.63048C9.51648 12.0935 9.40539 12.0577 9.31275 11.9913C9.22011 11.9248 9.15055 11.8311 9.1138 11.7232C9.07704 11.6153 9.07493 11.4986 9.10776 11.3894C9.14058 11.2802 9.20671 11.184 9.29688 11.1143L16.176 5.79813C16.2569 5.73567 16.3538 5.69714 16.4555 5.68692C16.5572 5.67669 16.6597 5.69518 16.7514 5.74027C16.8432 5.78537 16.9204 5.85528 16.9744 5.94206C17.0285 6.02885 17.0571 6.12903 17.057 6.23125V11.5469C17.057 11.6919 16.9994 11.831 16.8969 11.9336C16.7943 12.0361 16.6552 12.0938 16.5102 12.0938ZM11.2323 11H15.9633V7.34469L11.2323 11Z" fill="#1E1E1E"/>
<path d="M57.8156 1.59375L53.4898 6.23125V11.5469H16.5101V6.23125L12.1843 1.59375H57.8156Z" fill="#BEBCBC"/>
<path d="M53.4899 12.0938H16.5102C16.3651 12.0938 16.226 12.0361 16.1235 11.9336C16.0209 11.831 15.9633 11.6919 15.9633 11.5469V6.44672L11.7846 1.96672C11.712 1.88881 11.6637 1.79139 11.6456 1.68641C11.6276 1.58143 11.6406 1.47347 11.683 1.37577C11.7255 1.27808 11.7955 1.19491 11.8846 1.13649C11.9737 1.07806 12.0779 1.04691 12.1844 1.04688H57.8156C57.9222 1.04691 58.0263 1.07806 58.1154 1.13649C58.2045 1.19491 58.2745 1.27808 58.317 1.37577C58.3595 1.47347 58.3725 1.58143 58.3544 1.68641C58.3364 1.79139 58.288 1.88881 58.2154 1.96672L54.0367 6.44672V11.5469C54.0367 11.6919 53.9791 11.831 53.8765 11.9336C53.774 12.0361 53.6349 12.0938 53.4899 12.0938ZM17.057 11H52.943V6.23125C52.943 6.09279 52.9956 5.9595 53.0901 5.85828L56.5573 2.13953H13.4427L16.9099 5.85828C17.0044 5.9595 17.057 6.09279 17.057 6.23125V11Z" fill="#1E1E1E"/>
<path d="M57.8157 1.59375V9.57266L53.4899 6.23125L57.8157 1.59375Z" fill="#D9D9D9"/>
<path d="M57.8157 10.1195C57.6945 10.1196 57.5768 10.0794 57.481 10.0052L53.1563 6.66384C53.0961 6.61732 53.0463 6.55876 53.01 6.4919C52.9738 6.42505 52.9518 6.35136 52.9457 6.27555C52.9395 6.19974 52.9492 6.12347 52.9742 6.05163C52.9991 5.97978 53.0388 5.91393 53.0907 5.85829L57.4159 1.22079C57.4908 1.14056 57.5881 1.08473 57.6951 1.06054C57.8022 1.03635 57.914 1.04493 58.0161 1.08516C58.1182 1.12539 58.2059 1.1954 58.2677 1.28611C58.3294 1.37682 58.3625 1.48401 58.3625 1.59376V9.57266C58.3625 9.7177 58.3049 9.8568 58.2024 9.95936C58.0998 10.0619 57.9607 10.1195 57.8157 10.1195ZM54.2993 6.16509L57.2688 8.46196V2.98173L54.2993 6.16509Z" fill="#1E1E1E"/>
<path d="M16.5101 6.23125L12.1843 9.57266V1.59375L16.5101 6.23125Z" fill="#D9D9D9"/>
<path d="M12.1843 10.1195C12.0393 10.1195 11.9002 10.0619 11.7976 9.95937C11.6951 9.85681 11.6375 9.71771 11.6375 9.57267V1.59376C11.6374 1.4839 11.6704 1.37656 11.7322 1.28573C11.794 1.1949 11.8817 1.12479 11.984 1.08454C12.0862 1.04428 12.1982 1.03575 12.3053 1.06006C12.4124 1.08436 12.5098 1.14037 12.5846 1.2208L16.9099 5.85939C16.9617 5.91503 17.0014 5.98088 17.0264 6.05273C17.0513 6.12457 17.0611 6.20084 17.0549 6.27665C17.0487 6.35246 17.0268 6.42615 16.9905 6.49301C16.9542 6.55986 16.9044 6.61842 16.8442 6.66494L12.519 10.0063C12.423 10.0801 12.3053 10.1199 12.1843 10.1195ZM12.7312 2.98173V8.45923L15.7007 6.16509L12.7312 2.98173Z" fill="#1E1E1E"/>
<path d="M35 40.4875C31.2532 40.4833 27.661 38.993 25.0116 36.3436C22.3622 33.6942 20.8719 30.102 20.8677 26.3552V21.4524C20.8677 21.3074 20.9253 21.1683 21.0279 21.0657C21.1304 20.9632 21.2695 20.9055 21.4146 20.9055C21.5596 20.9055 21.6987 20.9632 21.8013 21.0657C21.9038 21.1683 21.9614 21.3074 21.9614 21.4524V26.3552C21.9614 29.8132 23.3351 33.1296 25.7803 35.5748C28.2256 38.02 31.542 39.3938 35 39.3938C38.4581 39.3938 41.7745 38.02 44.2197 35.5748C46.6649 33.1296 48.0386 29.8132 48.0386 26.3552V21.4524C48.0386 21.3074 48.0962 21.1683 48.1988 21.0657C48.3014 20.9632 48.4405 20.9055 48.5855 20.9055C48.7305 20.9055 48.8696 20.9632 48.9722 21.0657C49.0748 21.1683 49.1324 21.3074 49.1324 21.4524V26.3552C49.1282 30.102 47.6379 33.6942 44.9885 36.3436C42.339 38.993 38.7469 40.4833 35 40.4875Z" fill="#1E1E1E"/>
<path d="M48.5855 16.209C48.0669 16.209 47.5601 16.3627 47.1289 16.6508C46.6978 16.9389 46.3617 17.3484 46.1633 17.8274C45.9649 18.3065 45.913 18.8336 46.0141 19.3422C46.1153 19.8507 46.365 20.3179 46.7316 20.6845C47.0983 21.0512 47.5654 21.3009 48.074 21.402C48.5826 21.5032 49.1097 21.4513 49.5888 21.2529C50.0678 21.0544 50.4773 20.7184 50.7653 20.2873C51.0534 19.8561 51.2072 19.3492 51.2072 18.8307C51.2072 18.1354 50.931 17.4685 50.4393 16.9769C49.9476 16.4852 49.2808 16.209 48.5855 16.209Z" fill="#BEBCBC"/>
<path d="M48.5855 21.9993C47.9588 21.9993 47.3462 21.8135 46.8251 21.4653C46.304 21.1171 45.8979 20.6223 45.6581 20.0433C45.4182 19.4643 45.3555 18.8272 45.4778 18.2125C45.6 17.5979 45.9018 17.0333 46.3449 16.5902C46.7881 16.147 47.3527 15.8453 47.9673 15.723C48.5819 15.6007 49.219 15.6635 49.798 15.9033C50.377 16.1431 50.8719 16.5493 51.2201 17.0703C51.5682 17.5914 51.7541 18.204 51.7541 18.8307C51.7532 19.6708 51.4191 20.4762 50.825 21.0703C50.231 21.6643 49.4256 21.9984 48.5855 21.9993ZM48.5855 16.7559C48.1751 16.7559 47.774 16.8775 47.4327 17.1055C47.0915 17.3335 46.8256 17.6576 46.6686 18.0367C46.5115 18.4158 46.4704 18.833 46.5505 19.2355C46.6305 19.638 46.8282 20.0077 47.1183 20.2978C47.4085 20.588 47.7782 20.7856 48.1807 20.8657C48.5832 20.9457 49.0003 20.9047 49.3795 20.7476C49.7586 20.5906 50.0826 20.3246 50.3106 19.9834C50.5386 19.6422 50.6603 19.2411 50.6603 18.8307C50.6594 18.2807 50.4406 17.7534 50.0516 17.3645C49.6627 16.9756 49.1355 16.7567 48.5855 16.7559Z" fill="#1E1E1E"/>
<path d="M21.4146 16.209C20.896 16.209 20.3892 16.3627 19.958 16.6508C19.5269 16.9389 19.1908 17.3484 18.9924 17.8274C18.794 18.3065 18.7421 18.8336 18.8432 19.3422C18.9444 19.8507 19.1941 20.3179 19.5607 20.6845C19.9274 21.0512 20.3945 21.3009 20.9031 21.402C21.4117 21.5032 21.9388 21.4513 22.4179 21.2529C22.8969 21.0544 23.3064 20.7184 23.5944 20.2873C23.8825 19.8561 24.0363 19.3492 24.0363 18.8307C24.0363 18.1354 23.7601 17.4685 23.2684 16.9769C22.7767 16.4852 22.1099 16.209 21.4146 16.209Z" fill="#BEBCBC"/>
<path d="M21.4146 21.9993C20.7879 21.9993 20.1753 21.8135 19.6542 21.4653C19.1331 21.1171 18.727 20.6223 18.4872 20.0433C18.2473 19.4643 18.1846 18.8272 18.3069 18.2125C18.4291 17.5979 18.7309 17.0333 19.174 16.5902C19.6172 16.147 20.1818 15.8453 20.7964 15.723C21.4111 15.6007 22.0481 15.6635 22.6271 15.9033C23.2061 16.1431 23.701 16.5493 24.0492 17.0703C24.3973 17.5914 24.5832 18.204 24.5832 18.8307C24.5823 19.6708 24.2482 20.4762 23.6541 21.0703C23.0601 21.6643 22.2547 21.9984 21.4146 21.9993ZM21.4146 16.7559C21.0042 16.7559 20.6031 16.8775 20.2618 17.1055C19.9206 17.3335 19.6547 17.6576 19.4977 18.0367C19.3406 18.4158 19.2995 18.833 19.3796 19.2355C19.4596 19.638 19.6573 20.0077 19.9474 20.2978C20.2376 20.588 20.6073 20.7856 21.0098 20.8657C21.4123 20.9457 21.8294 20.9047 22.2086 20.7476C22.5877 20.5906 22.9117 20.3246 23.1397 19.9834C23.3677 19.6422 23.4894 19.2411 23.4894 18.8307C23.4885 18.2807 23.2697 17.7534 22.8807 17.3645C22.4918 16.9756 21.9646 16.7567 21.4146 16.7559Z" fill="#1E1E1E"/>
</svg>
