<svg width="44" height="44" viewBox="0 0 44 44" fill="none" xmlns="http://www.w3.org/2000/svg">
<rect width="44" height="44" rx="15" fill="#FAFAFA"/>
<path d="M22 25C23.6569 25 25 23.6569 25 22C25 20.3431 23.6569 19 22 19C20.3431 19 19 20.3431 19 22C19 23.6569 20.3431 25 22 25Z" stroke="#292D32" stroke-width="1.5" stroke-miterlimit="10" stroke-linecap="round" stroke-linejoin="round"/>
<path d="M12 22.88V21.12C12 20.08 12.85 19.22 13.9 19.22C15.71 19.22 16.45 17.94 15.54 16.37C15.02 15.47 15.33 14.3 16.24 13.78L17.97 12.79C18.76 12.32 19.78 12.6 20.25 13.39L20.36 13.58C21.26 15.15 22.74 15.15 23.65 13.58L23.76 13.39C24.23 12.6 25.25 12.32 26.04 12.79L27.77 13.78C28.68 14.3 28.99 15.47 28.47 16.37C27.56 17.94 28.3 19.22 30.11 19.22C31.15 19.22 32.01 20.07 32.01 21.12V22.88C32.01 23.92 31.16 24.78 30.11 24.78C28.3 24.78 27.56 26.06 28.47 27.63C28.99 28.54 28.68 29.7 27.77 30.22L26.04 31.21C25.25 31.68 24.23 31.4 23.76 30.61L23.65 30.42C22.75 28.85 21.27 28.85 20.36 30.42L20.25 30.61C19.78 31.4 18.76 31.68 17.97 31.21L16.24 30.22C15.33 29.7 15.02 28.53 15.54 27.63C16.45 26.06 15.71 24.78 13.9 24.78C12.85 24.78 12 23.92 12 22.88Z" stroke="#292D32" stroke-width="1.5" stroke-miterlimit="10" stroke-linecap="round" stroke-linejoin="round"/>
</svg>
